<svg id="Layer_1" data-name="Layer 1" xmlns="http://www.w3.org/2000/svg" viewBox="0 0 48 48"><title>2. Value</title><path d="M24,46.76a1,1,0,0,1-.85-.47L1.49,11.44a1,1,0,0,1,.22-1.31L12.54,1.46a1,1,0,0,1,.62-.22H34.81a1,1,0,0,1,.63.22l10.84,8.67a1,1,0,0,1,.23,1.31L24.84,46.29A1,1,0,0,1,24,46.76ZM3.66,11.14,24,43.87,44.34,11.14l-9.88-7.9H13.52Z"/><path d="M45.66,11.91H2.34a1,1,0,0,1,0-2H45.66a1,1,0,0,1,0,2Z"/><path d="M24,46.76a1,1,0,0,1-1-1V10.91a1,1,0,0,1,2,0V45.76A1,1,0,0,1,24,46.76Z"/><path d="M24,11.91a1,1,0,0,1-.63-.22L12.54,3a1,1,0,1,1,1.25-1.56L24,9.63l10.2-8.17a1,1,0,0,1,1.4.15A1,1,0,0,1,35.44,3L24.61,11.69A1,1,0,0,1,24,11.91Z"/><path d="M35.64,28a1,1,0,0,1-.81-.42L23.93,12.54,12.31,26.38a1,1,0,1,1-1.53-1.28L23.22,10.27a1,1,0,0,1,1.58.06L36.45,26.44a1,1,0,0,1-.22,1.4A1.09,1.09,0,0,1,35.64,28Z"/></svg>